<svg xmlns="http://www.w3.org/2000/svg" viewBox="0 0 77 79.21"><defs><style>.cls-1{fill:#007fff;}.cls-2{fill:#0060b3;}.cls-3{fill:#3cc;}.cls-4{fill:#03283f;}</style></defs><title>logo-klaus-mini-rebrand</title><g id="Layer_2" data-name="Layer 2"><g id="Layer_1-2" data-name="Layer 1"><path class="cls-1" d="M70.17,36.26a6.05,6.05,0,0,1-5.8-7.78,12.75,12.75,0,0,0-12.2-16.39,12.64,12.64,0,0,0-7.31,2.3,6,6,0,1,1-7-9.9A24.84,24.84,0,0,1,76,31.93,6.05,6.05,0,0,1,70.17,36.26Z"/><path class="cls-2" d="M52.17,49.66A24.83,24.83,0,0,1,37.91,4.5a6,6,0,1,1,7,9.89,12.74,12.74,0,0,0,7.31,23.17,6,6,0,1,1,0,12.09Z"/><path class="cls-3" d="M52.17,49.66a6,6,0,0,1,0-12.09,12.81,12.81,0,0,0,12.21-9.09A6,6,0,0,1,76,31.94,25,25,0,0,1,52.17,49.66Z"/><path class="cls-4" d="M0,7.18H18.64V44.54h1L41.47,26.78H62.2L37.63,47.53l26.2,31.69H42L23.67,56.69l-5,4.77V79.21H0Z"/></g></g></svg>